{
  "accessors": [
    {
      "bufferView": 2,
      "componentType": 5126,
      "count": 1169,
      "max": [
        44.95155334472656,
        25.955780029296875,
        40.883094787597656
      ],
      "min": [
        -42.18458938598633,
        -32.80167007446289,
        -48.6003303527832
      ],
      "type": "VEC3"
    },
    {
      "bufferView": 2,
      "byteOffset": 14028,
      "componentType": 5126,
      "count": 1169,
      "max": [
        0.9964295625686646,
        0.9839515089988708,
        0.9984307885169983
      ],
      "min": [
        -0.9801799654960632,
        -0.9999953508377075,
        -0.9755239486694336
      ],
      "type": "VEC3"
    },
    {
      "bufferView": 3,
      "componentType": 5126,
      "count": 1169,
      "max": [
        0.999922513961792,
        0.99983811378479,
        0.9994356036186218,
        1.0
      ],
      "min": [
        -0.9997705221176147,
        -0.8104031085968018,
        -0.9807985424995422,
        -1.0
      ],
      "type": "VEC4"
    },
    {
      "bufferView": 1,
      "componentType": 5126,
      "count": 1169,
      "max": [
        0.9922714233398438,
        0.9948647022247314
      ],
      "min": [
        0.0026936891954392195,
        0.007847659289836884
      ],
      "type": "VEC2"
    },
    {
      "bufferView": 0,
      "componentType": 5125,
      "count": 5148,
      "type": "SCALAR"
    }
  ],
  "asset": {
    "extras": {
      "author": "Josiah Holcom (https://sketchfab.com/epicjodog)",
      "license": "CC-BY-4.0 (http://creativecommons.org/licenses/by/4.0/)",
      "source": "https://sketchfab.com/3d-models/rock-d3d3c9d73f8e4554b5115073824c3f12",
      "title": "Rock"
    },
    "generator": "Sketchfab-12.67.0",
    "version": "2.0"
  },
  "bufferViews": [
    {
      "buffer": 0,
      "byteLength": 20592,
      "name": "floatBufferViews",
      "target": 34963
    },
    {
      "buffer": 0,
      "byteLength": 9352,
      "byteOffset": 20592,
      "byteStride": 8,
      "name": "floatBufferViews",
      "target": 34962
    },
    {
      "buffer": 0,
      "byteLength": 28056,
      "byteOffset": 29944,
      "byteStride": 12,
      "name": "floatBufferViews",
      "target": 34962
    },
    {
      "buffer": 0,
      "byteLength": 18704,
      "byteOffset": 58000,
      "byteStride": 16,
      "name": "floatBufferViews",
      "target": 34962
    }
  ],
  "buffers": [
    {
      "byteLength": 76704,
      "uri": "scene.bin"
    }
  ],
  "images": [
    {
      "uri": "textures/lambert1_baseColor.png"
    },
    {
      "uri": "textures/lambert1_metallicRoughness.png"
    },
    {
      "uri": "textures/lambert1_normal.png"
    }
  ],
  "materials": [
    {
      "doubleSided": true,
      "name": "lambert1",
      "normalTexture": {
        "index": 2
      },
      "pbrMetallicRoughness": {
        "baseColorTexture": {
          "index": 0
        },
        "metallicRoughnessTexture": {
          "index": 1
        }
      }
    }
  ],
  "meshes": [
    {
      "name": "Rock01_LowPoly_lambert1_0",
      "primitives": [
        {
          "attributes": {
            "NORMAL": 1,
            "POSITION": 0,
            "TANGENT": 2,
            "TEXCOORD_0": 3
          },
          "indices": 4,
          "material": 0,
          "mode": 4
        }
      ]
    }
  ],
  "nodes": [
    {
      "children": [
        1
      ],
      "matrix": [
        1.0,
        0.0,
        0.0,
        0.0,
        0.0,
        2.220446049250313e-16,
        -1.0,
        0.0,
        0.0,
        1.0,
        2.220446049250313e-16,
        0.0,
        0.0,
        0.0,
        0.0,
        1.0
      ],
      "name": "Sketchfab_model"
    },
    {
      "children": [
        2
      ],
      "matrix": [
        1.0,
        0.0,
        0.0,
        0.0,
        0.0,
        0.0,
        1.0,
        0.0,
        0.0,
        -1.0,
        0.0,
        0.0,
        0.0,
        0.0,
        0.0,
        1.0
      ],
      "name": "4c160362db8c4b1694d28f8823393dbe.fbx"
    },
    {
      "children": [
        3
      ],
      "name": "RootNode"
    },
    {
      "children": [
        4
      ],
      "matrix": [
        0.002566263312473893,
        0.0,
        0.0,
        0.0,
        0.0,
        0.002566263312473893,
        0.0,
        0.0,
        0.0,
        0.0,
        0.002566263312473893,
        0.0,
        0.0,
        0.08564838021993637,
        0.0,
        1.0
      ],
      "name": "Rock01_LowPoly"
    },
    {
      "mesh": 0,
      "name": "Rock01_LowPoly_lambert1_0"
    }
  ],
  "samplers": [
    {
      "magFilter": 9729,
      "minFilter": 9987,
      "wrapS": 10497,
      "wrapT": 10497
    }
  ],
  "scene": 0,
  "scenes": [
    {
      "name": "Sketchfab_Scene",
      "nodes": [
        0
      ]
    }
  ],
  "textures": [
    {
      "sampler": 0,
      "source": 0
    },
    {
      "sampler": 0,
      "source": 1
    },
    {
      "sampler": 0,
      "source": 2
    }
  ]
}
