{
  "accessors": [
    {
      "bufferView": 2,
      "componentType": 5126,
      "count": 128,
      "max": [
        0.6190527677536011,
        0.47314587235450745,
        0.41841578483581543
      ],
      "min": [
        -0.48606544733047485,
        -0.5084102153778076,
        -0.4891631305217743
      ],
      "type": "VEC3"
    },
    {
      "bufferView": 2,
      "byteOffset": 1536,
      "componentType": 5126,
      "count": 128,
      "max": [
        0.9645813703536987,
        0.8355748057365417,
        1.0
      ],
      "min": [
        -0.91246098279953,
        -0.9160646200180054,
        -0.9586646556854248
      ],
      "type": "VEC3"
    },
    {
      "bufferView": 1,
      "componentType": 5126,
      "count": 128,
      "max": [
        0.9999999403953552,
        1.0
      ],
      "min": [
        0.0,
        0.0
      ],
      "type": "VEC2"
    },
    {
      "bufferView": 1,
      "byteOffset": 1024,
      "componentType": 5126,
      "count": 128,
      "max": [
        0.9999999403953552,
        1.0
      ],
      "min": [
        0.0,
        0.0
      ],
      "type": "VEC2"
    },
    {
      "bufferView": 1,
      "byteOffset": 2048,
      "componentType": 5126,
      "count": 128,
      "max": [
        0.9999999403953552,
        1.0
      ],
      "min": [
        0.0,
        0.0
      ],
      "type": "VEC2"
    },
    {
      "bufferView": 1,
      "byteOffset": 3072,
      "componentType": 5126,
      "count": 128,
      "max": [
        0.9999999403953552,
        1.0
      ],
      "min": [
        0.0,
        0.0
      ],
      "type": "VEC2"
    },
    {
      "bufferView": 1,
      "byteOffset": 4096,
      "componentType": 5126,
      "count": 128,
      "max": [
        0.9999999403953552,
        1.0
      ],
      "min": [
        0.0,
        0.0
      ],
      "type": "VEC2"
    },
    {
      "bufferView": 1,
      "byteOffset": 5120,
      "componentType": 5126,
      "count": 128,
      "max": [
        0.9999999403953552,
        1.0
      ],
      "min": [
        0.0,
        0.0
      ],
      "type": "VEC2"
    },
    {
      "bufferView": 1,
      "byteOffset": 6144,
      "componentType": 5126,
      "count": 128,
      "max": [
        0.9999999403953552,
        1.0
      ],
      "min": [
        0.0,
        0.0
      ],
      "type": "VEC2"
    },
    {
      "bufferView": 1,
      "byteOffset": 7168,
      "componentType": 5126,
      "count": 128,
      "max": [
        0.9999999403953552,
        1.0
      ],
      "min": [
        0.0,
        0.0
      ],
      "type": "VEC2"
    },
    {
      "bufferView": 1,
      "byteOffset": 8192,
      "componentType": 5126,
      "count": 128,
      "max": [
        0.9999999403953552,
        1.0
      ],
      "min": [
        0.0,
        0.0
      ],
      "type": "VEC2"
    },
    {
      "bufferView": 0,
      "componentType": 5125,
      "count": 162,
      "type": "SCALAR"
    }
  ],
  "asset": {
    "extras": {
      "author": "Bull studios (https://sketchfab.com/dzemalmclaren)",
      "license": "CC-BY-4.0 (http://creativecommons.org/licenses/by/4.0/)",
      "source": "https://sketchfab.com/3d-models/stylized-lowpoly-rock-6e476441b5614231bf4e8de194c418d9",
      "title": "Stylized lowpoly rock"
    },
    "generator": "Sketchfab-12.68.0",
    "version": "2.0"
  },
  "bufferViews": [
    {
      "buffer": 0,
      "byteLength": 648,
      "name": "floatBufferViews",
      "target": 34963
    },
    {
      "buffer": 0,
      "byteLength": 9216,
      "byteOffset": 648,
      "byteStride": 8,
      "name": "floatBufferViews",
      "target": 34962
    },
    {
      "buffer": 0,
      "byteLength": 3072,
      "byteOffset": 9864,
      "byteStride": 12,
      "name": "floatBufferViews",
      "target": 34962
    }
  ],
  "buffers": [
    {
      "byteLength": 12936,
      "uri": "scene.bin"
    }
  ],
  "images": [
    {
      "uri": "textures/Material_52_baseColor.png"
    }
  ],
  "materials": [
    {
      "doubleSided": true,
      "name": "Material_52",
      "pbrMetallicRoughness": {
        "baseColorTexture": {
          "index": 0
        },
        "metallicFactor": 0.0
      }
    }
  ],
  "meshes": [
    {
      "name": "node_id4_Material_52_0",
      "primitives": [
        {
          "attributes": {
            "NORMAL": 1,
            "POSITION": 0,
            "TEXCOORD_0": 2,
            "TEXCOORD_1": 3,
            "TEXCOORD_2": 4,
            "TEXCOORD_3": 5,
            "TEXCOORD_4": 6,
            "TEXCOORD_5": 7,
            "TEXCOORD_6": 8,
            "TEXCOORD_7": 9,
            "TEXCOORD_8": 10
          },
          "indices": 11,
          "material": 0,
          "mode": 4
        }
      ]
    }
  ],
  "nodes": [
    {
      "children": [
        1
      ],
      "matrix": [
        1.0,
        0.0,
        0.0,
        0.0,
        0.0,
        2.220446049250313e-16,
        -1.0,
        0.0,
        0.0,
        1.0,
        2.220446049250313e-16,
        0.0,
        0.0,
        0.0,
        0.0,
        1.0
      ],
      "name": "Sketchfab_model"
    },
    {
      "children": [
        2
      ],
      "matrix": [
        1.0,
        0.0,
        0.0,
        0.0,
        0.0,
        0.0,
        1.0,
        0.0,
        0.0,
        -1.0,
        0.0,
        0.0,
        0.0,
        0.0,
        0.0,
        1.0
      ],
      "name": "24ba5787667942f79bf4e3dd2652bf7c.fbx"
    },
    {
      "children": [
        3
      ],
      "name": "RootNode"
    },
    {
      "children": [
        4
      ],
      "name": "root"
    },
    {
      "children": [
        5
      ],
      "matrix": [
        0.31228864577241566,
        0.08602626727580631,
        0.07725795453487247,
        0.0,
        0.07228118676331412,
        -0.3189161955345877,
        0.06293948598274719,
        0.0,
        0.09024820942969232,
        -0.042254370643327925,
        -0.3177472853305923,
        0.0,
        -0.016298329457640648,
        -0.012838120572268963,
        0.24073271453380585,
        1.0
      ],
      "name": "node_id4"
    },
    {
      "mesh": 0,
      "name": "node_id4_Material_52_0"
    }
  ],
  "samplers": [
    {
      "magFilter": 9729,
      "minFilter": 9987,
      "wrapS": 10497,
      "wrapT": 10497
    }
  ],
  "scene": 0,
  "scenes": [
    {
      "name": "Sketchfab_Scene",
      "nodes": [
        0
      ]
    }
  ],
  "textures": [
    {
      "sampler": 0,
      "source": 0
    }
  ]
}
